<svg xmlns="http://www.w3.org/2000/svg" viewBox="0 0 256 256" role="img" aria-labelledby="title desc">
  <title id="title">Acorn card</title>
  <desc id="desc">Clean acorn icon on a bordered card.</desc>
  <rect x="12" y="12" width="232" height="232" rx="36" fill="#fffaf4" stroke="#dccfbe" stroke-width="8"/>
  <circle cx="128" cy="128" r="72" fill="#f3e2c8"/>
  <path d="M128 88c28 0 48 22 48 48 0 10-4 20-10 28-10 14-23 28-38 52-15-24-28-38-38-52-6-8-10-18-10-28 0-26 20-48 48-48Z" fill="#9b6947"/>
  <path d="M84 122c12-22 76-22 88 0" fill="#6d4a34"/>
  <path d="M126 72c8-12 20-16 30-10" fill="none" stroke="#5f8a54" stroke-linecap="round" stroke-width="8"/>
</svg>
